# Blender v2.82 (sub 7) OBJ File: ''
# www.blender.org
mtllib 2^3 explode.mtl
o Cube_Cube.002
v -1.000000 0.333334 -1.500000
v -1.000000 0.666666 -1.500000
v 1.000000 0.666666 -1.500000
v 1.000000 0.333334 -1.500000
v 1.000000 1.000000 0.666666
v -1.000000 1.000000 0.666666
v -1.000000 1.000000 1.000000
v 1.000000 1.000000 1.000000
v -1.000000 -0.100000 -1.500000
v 1.000000 -0.100000 -1.500000
v -1.000000 -0.666666 -1.500000
v -1.000000 -0.333334 -1.500000
v 1.000000 -0.333334 -1.500000
v 1.000000 -0.666666 -1.500000
v -1.000000 -1.000000 -1.500000
v 1.000000 -1.000000 -1.500000
v -1.000000 1.000000 -1.500000
v 1.000000 1.000000 -1.500000
v 1.000000 1.000000 -1.000000
v -1.000000 1.000000 -1.000000
v -1.000000 1.000000 -0.666666
v 1.000000 1.000000 -0.666666
v -1.000000 1.000000 -0.333334
v 1.000000 1.000000 -0.333334
v -1.000000 1.000000 0.100000
v 1.000000 1.000000 0.100000
v -1.000000 1.000000 0.333334
v 1.000000 1.000000 0.333334
v 1.000000 0.333334 1.500000
v 1.000000 0.666666 1.500000
v -1.000000 0.666666 1.500000
v -1.000000 0.333334 1.500000
v 1.000000 -0.100000 1.500000
v -1.000000 -0.100000 1.500000
v 1.000000 -0.666666 1.500000
v 1.000000 -0.333334 1.500000
v -1.000000 -0.333334 1.500000
v -1.000000 -0.666666 1.500000
v 1.000000 -1.000000 1.500000
v -1.000000 -1.000000 1.500000
v 1.000000 1.000000 1.500000
v -1.000000 1.000000 1.500000
v 2.000000 0.066667 0.022222
v 2.000000 -0.933333 -0.311112
v 2.000000 -0.933333 -0.644444
v -1.000000 -1.000000 0.666666
v 1.000000 -1.000000 0.666666
v 1.000000 -1.000000 1.000000
v -1.000000 -1.000000 1.000000
v 2.000000 -0.933333 0.355556
v 2.000000 -0.933334 0.688888
v 2.000000 -0.600000 1.022222
v 2.000000 -0.933334 1.022222
v 2.000000 0.400000 1.022222
v 2.000000 0.166666 1.022222
v 2.000000 1.066667 -0.311111
v 2.000000 1.066667 -0.644443
v 2.000000 1.066667 -0.077777
v 2.000000 1.066667 0.355557
v 2.000000 1.066666 0.688889
v 2.000000 1.066666 1.022223
v 2.000000 0.733332 1.022223
v 2.000000 -0.266668 1.022222
v 2.000000 -0.599999 -0.977778
v 2.000000 -0.266667 -0.977778
v -1.000000 -1.000000 -1.000000
v 1.000000 -1.000000 -1.000000
v 1.000000 -1.000000 -0.666666
v -1.000000 -1.000000 -0.666666
v 1.000000 -1.000000 -0.333334
v -1.000000 -1.000000 -0.333334
v 1.000000 -1.000000 0.100000
v -1.000000 -1.000000 0.100000
v 1.000000 -1.000000 0.333334
v -1.000000 -1.000000 0.333334
v 2.000000 -0.033333 -0.977778
v 2.000000 0.400001 -0.977778
v 2.000000 0.733333 -0.977777
v 2.000000 1.066667 -0.977777
v 2.000000 -0.933333 -0.977778
v 2.000000 -0.933333 -0.077778
v -1.000000 0.100000 -1.500000
v 2.000000 -0.933333 -0.311112
v 1.000000 0.100000 -1.500000
v -1.000000 1.000000 -0.100000
v 1.000000 1.000000 -0.100000
v 1.000000 0.100000 1.500000
v -1.000000 0.100000 1.500000
v 1.000000 -1.000000 -0.100000
v -1.000000 -1.000000 -0.100000
v 2.000000 1.066667 0.122223
v 2.000000 -0.933333 0.122222
v 2.000000 0.166667 -0.977778
v 2.000000 -0.033334 1.022222
v -2.000000 0.066667 0.000000
v -2.000000 -0.933333 0.333334
v -2.000000 -0.933333 0.666666
v -2.000000 -0.933333 -0.333334
v -2.000000 -0.933334 -0.666666
v -2.000000 -0.600000 -1.000000
v -2.000000 -0.933334 -1.000000
v -2.000000 0.400000 -1.000000
v -2.000000 0.166666 -1.000000
v -2.000000 1.066667 0.333334
v -2.000000 1.066667 0.666666
v -2.000000 1.066667 0.100000
v -2.000000 1.066666 -0.333334
v -2.000000 1.066666 -0.666666
v -2.000000 1.066666 -1.000000
v -2.000000 0.733332 -1.000000
v -2.000000 -0.266668 -1.000000
v -2.000000 -0.599999 1.000000
v -2.000000 -0.266667 1.000000
v -2.000000 -0.033333 1.000000
v -2.000000 0.400001 1.000000
v -2.000000 0.733333 1.000000
v -2.000000 1.066667 1.000000
v -2.000000 -0.933333 1.000000
v -2.000000 -0.933333 0.100000
v -2.000000 -0.933333 0.333334
v -2.000000 1.066667 -0.100000
v -2.000000 -0.933333 -0.100000
v -2.000000 0.166667 1.000000
v -2.000000 -0.033334 -1.000000
vt 2.666633 0.000100
vt 2.833266 0.000100
vt 2.833266 0.999900
vt 2.666634 0.999900
vt 3.833266 0.999900
vt 3.833266 0.000100
vt 3.999900 0.000100
vt 3.999900 0.999900
vt 2.549990 0.000100
vt 2.549990 0.999900
vt 2.166733 0.000100
vt 2.333366 0.000100
vt 2.333365 0.999900
vt 2.166733 0.999900
vt 2.000100 0.000100
vt 2.000100 0.999900
vt 2.450010 0.000100
vt 2.450009 0.999900
vt 2.999900 0.000100
vt 2.999899 0.999900
vt 3.000100 0.999900
vt 3.000100 0.000100
vt 3.166734 0.000100
vt 3.166734 0.999900
vt 3.333366 0.000100
vt 3.333366 0.999900
vt 3.450010 0.000100
vt 3.450010 0.999900
vt 3.549990 0.999900
vt 3.549990 0.000100
vt 3.666634 0.000100
vt 3.666634 0.999900
vt 0.333366 0.999900
vt 0.166733 0.999900
vt 0.166734 0.000100
vt 0.333366 0.000100
vt 0.450010 0.999900
vt 0.450010 0.000100
vt 0.833266 0.999900
vt 0.666634 0.999900
vt 0.666634 0.000100
vt 0.833266 0.000100
vt 0.999900 0.999900
vt 0.999900 0.000100
vt 0.549990 0.999900
vt 0.549990 0.000100
vt 0.000100 0.999900
vt 0.000100 0.000100
vt 0.500000 0.500000
vt 0.666633 0.000101
vt 0.833265 0.000100
vt 1.166734 0.000100
vt 1.166734 0.999900
vt 1.000100 0.999900
vt 1.000100 0.000100
vt 0.549991 0.000101
vt 0.666635 0.000101
vt 0.333367 0.000101
vt 0.450011 0.000101
vt 0.166735 0.000100
vt 0.000101 0.166734
vt 0.000101 0.000100
vt 0.000100 0.666634
vt 0.000100 0.549990
vt 0.666634 0.999900
vt 0.833266 0.999900
vt 0.549990 0.999900
vt 0.333366 0.999900
vt 0.450010 0.999900
vt 0.166734 0.999900
vt 0.000100 0.999900
vt 0.000100 0.833266
vt 0.000100 0.450010
vt 0.000101 0.333366
vt 0.999899 0.166734
vt 0.999899 0.333366
vt 1.999900 0.000100
vt 1.999900 0.999900
vt 1.833266 0.999900
vt 1.833266 0.000100
vt 1.666634 0.999900
vt 1.666634 0.000100
vt 1.549990 0.999900
vt 1.549990 0.000100
vt 1.450010 0.000100
vt 1.450010 0.999900
vt 1.333366 0.999900
vt 1.333366 0.000100
vt 0.999900 0.450010
vt 0.999900 0.666634
vt 0.999900 0.833266
vt 0.999900 0.999900
vt 0.999900 0.549990
vt 0.999899 0.000100
vt 0.500000 0.500000
vt 0.666633 0.000101
vt 0.833265 0.000100
vt 0.549991 0.000101
vt 0.666635 0.000101
vt 0.333367 0.000101
vt 0.450011 0.000101
vt 0.166735 0.000100
vt 0.000101 0.166734
vt 0.000101 0.000100
vt 0.000100 0.666634
vt 0.000100 0.549990
vt 0.666634 0.999900
vt 0.833266 0.999900
vt 0.549990 0.999900
vt 0.333366 0.999900
vt 0.450010 0.999900
vt 0.166734 0.999900
vt 0.000100 0.999900
vt 0.000100 0.833266
vt 0.000100 0.450010
vt 0.000101 0.333366
vt 0.999899 0.166734
vt 0.999899 0.333366
vt 0.999900 0.450010
vt 0.999900 0.666634
vt 0.999900 0.833266
vt 0.999900 0.999900
vt 0.999900 0.549990
vt 0.999899 0.000100
vn 0.0000 0.0000 -1.0000
vn 0.0000 1.0000 0.0000
vn 0.0000 -0.0000 1.0000
vn 1.0000 0.0000 0.0000
vn 0.0000 -1.0000 -0.0000
vn -1.0000 -0.0000 0.0000
usemtl None.002
s 1
f 1/1/1 2/2/1 3/3/1 4/4/1
f 5/5/2 6/6/2 7/7/2 8/8/2
f 82/9/1 1/1/1 4/4/1 84/10/1
f 11/11/1 12/12/1 13/13/1 14/14/1
f 15/15/1 11/11/1 14/14/1 16/16/1
f 12/12/1 9/17/1 10/18/1 13/13/1
f 2/2/1 17/19/1 18/20/1 3/3/1
f 19/21/2 20/22/2 21/23/2 22/24/2
f 22/24/2 21/23/2 23/25/2 24/26/2
f 24/26/2 23/25/2 85/27/2 86/28/2
f 26/29/2 25/30/2 27/31/2 28/32/2
f 28/32/2 27/31/2 6/6/2 5/5/2
f 29/33/3 30/34/3 31/35/3 32/36/3
f 87/37/3 29/33/3 32/36/3 88/38/3
f 35/39/3 36/40/3 37/41/3 38/42/3
f 39/43/3 35/39/3 38/42/3 40/44/3
f 36/40/3 33/45/3 34/46/3 37/41/3
f 30/34/3 41/47/3 42/48/3 31/35/3
f 43/49/4 44/50/4 45/51/4
f 46/52/5 47/53/5 48/54/5 49/55/5
f 43/49/4 81/56/4 83/57/4
f 43/49/4 50/58/4 92/59/4
f 43/49/4 51/60/4 50/58/4
f 52/61/4 53/62/4 51/60/4 43/49/4
f 54/63/4 55/64/4 43/49/4
f 56/65/4 43/49/4 57/66/4
f 58/67/4 43/49/4 56/65/4
f 59/68/4 43/49/4 91/69/4
f 60/70/4 43/49/4 59/68/4
f 61/71/4 62/72/4 43/49/4 60/70/4
f 62/72/4 54/63/4 43/49/4
f 94/73/4 63/74/4 43/49/4
f 63/74/4 52/61/4 43/49/4
f 43/49/4 64/75/4 65/76/4
f 66/77/5 67/78/5 68/79/5 69/80/5
f 69/80/5 68/79/5 70/81/5 71/82/5
f 71/82/5 70/81/5 89/83/5 90/84/5
f 73/85/5 72/86/5 74/87/5 75/88/5
f 75/88/5 74/87/5 47/53/5 46/52/5
f 43/49/4 65/76/4 76/89/4
f 43/49/4 77/90/4 78/91/4
f 57/66/4 43/49/4 78/91/4 79/92/4
f 43/49/4 93/93/4 77/90/4
f 43/49/4 45/51/4 80/94/4 64/75/4
f 34/46/3 33/45/3 87/37/3 88/38/3
f 10/18/1 9/17/1 82/9/1 84/10/1
f 90/84/5 89/83/5 72/86/5 73/85/5
f 86/28/2 85/27/2 25/30/2 26/29/2
f 43/49/4 58/67/4 91/69/4
f 81/56/4 43/49/4 92/59/4
f 43/49/4 76/89/4 93/93/4
f 94/73/4 43/49/4 55/64/4
f 95/95/6 96/96/6 97/97/6
f 95/95/6 119/98/6 120/99/6
f 95/95/6 98/100/6 122/101/6
f 95/95/6 99/102/6 98/100/6
f 100/103/6 101/104/6 99/102/6 95/95/6
f 102/105/6 103/106/6 95/95/6
f 104/107/6 95/95/6 105/108/6
f 106/109/6 95/95/6 104/107/6
f 107/110/6 95/95/6 121/111/6
f 108/112/6 95/95/6 107/110/6
f 109/113/6 110/114/6 95/95/6 108/112/6
f 110/114/6 102/105/6 95/95/6
f 124/115/6 111/116/6 95/95/6
f 111/116/6 100/103/6 95/95/6
f 95/95/6 112/117/6 113/118/6
f 95/95/6 113/118/6 114/119/6
f 95/95/6 115/120/6 116/121/6
f 105/108/6 95/95/6 116/121/6 117/122/6
f 95/95/6 123/123/6 115/120/6
f 95/95/6 97/97/6 118/124/6 112/117/6
f 95/95/6 106/109/6 121/111/6
f 119/98/6 95/95/6 122/101/6
f 95/95/6 114/119/6 123/123/6
f 124/115/6 95/95/6 103/106/6
