# Blender v2.82 (sub 7) OBJ File: ''
# www.blender.org
mtllib CornerHandle.mtl
o CornerHandle_Plane.001
v -0.150000 -0.500000 -0.000000
v -0.150000 0.000000 -0.500000
v -0.150000 0.000000 -0.000000
v -0.150000 -0.250000 -0.500000
v -0.150000 -0.500000 -0.250000
v -0.150000 -0.250000 -0.250000
v -0.050000 -0.500000 -0.000000
v -0.050000 0.000000 -0.500000
v -0.050000 0.000000 -0.000000
v -0.050000 -0.250000 -0.500000
v -0.050000 -0.500000 -0.250000
v -0.050000 -0.250000 -0.250000
vt 0.500000 0.000000
vt 1.000000 0.500000
vt 0.500000 0.500000
vt 0.000000 0.500000
vt 0.000000 1.000000
vt 0.900913 0.763618
vt 0.850610 0.614089
vt 0.500000 0.500000
vt 0.839297 0.622730
vt 1.000000 1.000000
vt 0.500000 0.000000
vt 0.500000 0.500000
vt 1.000000 0.500000
vt 0.000000 0.500000
vt 0.000000 1.000000
vt 0.900913 0.763618
vt 0.850610 0.614089
vt 0.500000 0.500000
vt 1.000000 1.000000
vt 0.839297 0.622730
vn -0.5773 -0.5773 -0.5773
vn -0.5773 -0.5773 0.5773
vn -0.9045 -0.3015 -0.3015
vn -0.5773 0.5773 -0.5773
vn -0.5773 0.5773 0.5773
vn 0.5773 -0.5773 -0.5773
vn 0.9045 -0.3015 -0.3015
vn 0.5773 -0.5773 0.5773
vn 0.5773 0.5773 -0.5773
vn 0.5773 0.5773 0.5773
usemtl None
s 1
f 5/1/1 1/2/2 6/3/3
f 4/4/1 6/3/3 2/5/4
f 3/6/5 6/7/3 1/2/2
f 2/8/4 6/9/3 3/10/5
f 11/11/6 12/12/7 7/13/8
f 10/14/6 8/15/9 12/12/7
f 9/16/10 7/13/8 12/17/7
f 8/18/9 9/19/10 12/20/7
f 2/8/4 3/10/5 9/19/10 8/18/9
f 5/1/1 6/3/3 12/12/7 11/11/6
f 3/6/5 1/2/2 7/13/8 9/16/10
f 1/2/2 5/1/1 11/11/6 7/13/8
f 4/4/1 2/5/4 8/15/9 10/14/6
f 6/3/3 4/4/1 10/14/6 12/12/7
