# Blender v2.82 (sub 7) OBJ File: ''
# www.blender.org
mtllib WidthHandle.mtl
o WidthHandle_Plane.004
v -0.150000 -0.250000 -0.250000
v -0.150000 -0.250000 0.000000
v -0.150000 0.250000 -0.250000
v -0.150000 0.250000 -0.000000
v -0.050000 -0.250000 -0.250000
v -0.050000 -0.250000 0.000000
v -0.050000 0.250000 -0.250000
v -0.050000 0.250000 -0.000000
vt 0.500000 0.000000
vt 1.000000 0.500000
vt 0.500000 0.500000
vt 0.500000 0.000000
vt 1.000000 0.500000
vt 0.500000 0.500000
vt 0.500000 0.000000
vt 0.500000 0.500000
vt 1.000000 0.500000
vt 0.500000 0.000000
vt 0.500000 0.500000
vt 1.000000 0.500000
vn -0.5773 -0.5773 -0.5773
vn -0.5773 -0.5773 0.5773
vn -0.5773 0.5773 -0.5773
vn -0.5773 0.5773 0.5773
vn 0.5773 -0.5773 -0.5773
vn 0.5773 0.5773 -0.5773
vn 0.5773 -0.5773 0.5773
vn 0.5773 0.5773 0.5773
usemtl None
s 1
f 1/1/1 2/2/2 3/3/3
f 4/4/4 3/5/3 2/6/2
f 5/7/5 7/8/6 6/9/7
f 8/10/8 6/11/7 7/12/6
f 2/2/2 1/1/1 5/7/5 6/9/7
f 1/1/1 3/3/3 7/8/6 5/7/5
f 4/4/4 2/6/2 6/11/7 8/10/8
f 3/5/3 4/4/4 8/10/8 7/12/6
